# xmcd
#
# Track frame offsets:
#	150
#	14607
#	26109
#	40275
#	53576
#	64917
#	76127
#	79011
#	86698
#	99261
#	110910
#	124294
#	135852
#	145147
#	154479
#	164895
#	177281
#	189221
#	199231
#	209313
#	221161
#	233329
#	246252
#	259502
#	273227
#	285921
#
# Disc length: 3990
#
# Revision: 1
# Processed by: cddbd v1.5.1PL0 Copyright (c) Steve Scherf et al.
# Submitted via: CDex 1.51
# Normalized: r0:DSETVAR1,TDELIM( - )
#
DISCID=710f941a
DTITLE=Various Artist - The Modern Downhome Blues Sessions Vol 2
DYEAR=2003
DGENRE=Blues
TTITLE0=All In My Dreams - Boyd Gilmore
TTITLE1=Take A Little Walk With Me - Boyd Gilmore
TTITLE2=Please Find My Baby - Elmore James
TTITLE3=Long Tall Woman - Elmore James
TTITLE4=Charley's Boogie Woogie - Charley Booker
TTITLE5=G Man - Houston Boines
TTITLE6=Operator Blues (Take 1, false start) - Houston Boines
TTITLE7=Operator Blues (Take 2) - Houston Boines
TTITLE8=Superintendent Blues - Houston Boines
TTITLE9=Monkey Motion - Houston Boines
TTITLE10=Why Don't My Baby Write Me - Cleanhead Love
TTITLE11=Operator Blues (Take 3) - Houston Boines
TTITLE12=Blue Serenade - Baby Face Turner
TTITLE13=Gonna Let You Go - Baby Face Turner
TTITLE14=Step Back Baby aka Please Send My Baby Back - Sunny Blair
TTITLE15=Best Days - Baby Face Turner
TTITLE16=Blue Serenade (Take 1) - Baby Face Turner
TTITLE17=My Baby's Gone - Sunny Blair
TTITLE18=Step Back Baby - Sunny Blair
TTITLE19=Send My Baby Back - Sunny Blair
TTITLE20=Blue Serenade (Take 3) - Baby Face Turner
TTITLE21=Good Morning Baby - Drifting Slim
TTITLE22=My Sweet Woman - Drifting Slim
TTITLE23=You're An Old Woman - Drifting Slim
TTITLE24=Shout Sister Shout - Drifting Slim
TTITLE25=I Feel So Good - Drifting Slim
EXTD=YEAR: 2003
EXTT0=
EXTT1=
EXTT2=
EXTT3=
EXTT4=
EXTT5=
EXTT6=
EXTT7=
EXTT8=
EXTT9=
EXTT10=
EXTT11=
EXTT12=
EXTT13=
EXTT14=
EXTT15=
EXTT16=
EXTT17=
EXTT18=
EXTT19=
EXTT20=
EXTT21=
EXTT22=
EXTT23=
EXTT24=
EXTT25=
PLAYORDER=
